G04 DipTrace 3.0.0.1*
G04 Falc-eth.GTL*
%MOMM*%
G04 #@! TF.FileFunction,Copper,L1,Top*
G04 #@! TF.Part,Single*
%AMOUTLINE0*5,1,8,0,0,1.8,-202.49891*%
G04 #@! TA.AperFunction,Conductor*
%ADD13C,0.2032*%
G04 #@! TA.AperFunction,CopperBalancing*
%ADD14C,0.381*%
%ADD15C,0.254*%
G04 #@! TA.AperFunction,Conductor*
%ADD16C,0.762*%
%ADD17C,0.508*%
%ADD18C,0.4572*%
%ADD19C,1.016*%
%ADD20C,0.3048*%
%ADD21R,1.5X1.3*%
%ADD24R,1.3X1.5*%
G04 #@! TA.AperFunction,ComponentPad*
%ADD25C,1.6*%
%ADD26R,1.6X1.6*%
%ADD27C,1.51*%
%ADD28R,1.51X1.51*%
%ADD29R,1.5X1.5*%
%ADD30C,1.5*%
%ADD31C,1.8*%
%ADD32C,3.0*%
%ADD33C,1.524*%
%ADD34R,1.524X1.524*%
%ADD35C,1.5*%
%ADD36R,1.7X1.7*%
%ADD37C,1.7*%
%ADD38C,1.4986*%
%ADD40R,1.8X1.8*%
%ADD42R,0.4X1.8*%
%ADD43R,1.8X0.4*%
%ADD45R,0.5X1.8*%
%ADD46R,1.8X0.5*%
G04 #@! TA.AperFunction,ComponentPad*
%ADD47C,1.2192*%
G04 #@! TA.AperFunction,ViaPad*
%ADD48C,0.6858*%
%ADD50C,0.8636*%
G04 #@! TA.AperFunction,ComponentPad*
%ADD87OUTLINE0*%
%FSLAX35Y35*%
G04*
G71*
G90*
G75*
G01*
G04 Top*
%LPD*%
X9738440Y6207080D2*
D13*
X9865360Y6080160D1*
Y5267960D1*
X10132060Y5001260D1*
X10297160D1*
X14493360Y2816360D2*
Y2682360D1*
X14310360Y2499360D1*
X14208760D1*
X14132560Y2423160D1*
Y2143760D1*
X13903960Y1915160D1*
X12799060D1*
X12519660Y1635760D1*
X10246440Y6207080D2*
X10373360Y6080160D1*
Y5902960D1*
X10640060Y5636260D1*
X10868660D1*
X10867160Y5171260D1*
X15060860Y4058860D2*
X15214660D1*
X15212060Y4061460D1*
X11027160Y3832860D2*
Y4031260D1*
X15427960Y4112260D2*
X15377160Y4061460D1*
X15212060D1*
X11021060Y2677160D2*
Y2816860D1*
X10944860Y2893060D1*
Y3794760D1*
X10982960Y3832860D1*
X11027160D1*
X11021060Y2677160D2*
X10894060Y2550160D1*
Y2004060D1*
X10842247Y1952247D1*
X10499347D1*
X10436860Y1889760D1*
Y1483360D1*
X11437160Y4441260D2*
X11567160D1*
X12429560D2*
X12735560Y4747260D1*
X12951460D1*
X12998360Y4700360D1*
Y4586360D1*
X11567160Y4441260D2*
X11657260D1*
X11783060Y4315460D1*
Y2677160D1*
X11437160Y4361260D2*
Y4366260D1*
X11617960D1*
X12379960D2*
Y4361260D1*
X12451160D1*
X12672060Y4582160D1*
X12933360D1*
Y4586360D1*
X11617960Y4366260D2*
X11668760D1*
X11732260Y4302760D1*
Y3020060D1*
X11529060Y2816860D1*
Y2677160D1*
X9992440Y5953080D2*
X10467160Y5478360D1*
Y5171260D1*
X10068560Y4645660D2*
X10106660Y4607560D1*
X10297160D1*
Y4601260D1*
X12690860Y4318860D2*
X12548460D1*
X12506960Y4277360D1*
X12379960D1*
X11617960D2*
Y4281260D1*
X11437160D1*
X11249660Y1635760D2*
X11529060Y1915160D1*
X11732260D1*
X12049760Y2232660D1*
Y3947160D1*
X12379960Y4277360D1*
X12690860Y4253860D2*
X12688960Y4251960D1*
X12570460D1*
X12519760Y4201260D1*
X12430760D1*
X11567160D2*
X11437160D1*
X11503660Y1381760D2*
X11376660Y1508760D1*
Y1686560D1*
X11554460Y1864360D1*
X11757660D1*
X12087860Y2194560D1*
Y3858360D1*
X12430760Y4201260D1*
X9992440Y6207080D2*
X10119360Y6080160D1*
Y5902960D1*
X10627160Y5395160D1*
Y5171260D1*
X14428360Y2816360D2*
Y2680860D1*
X14284960Y2537460D1*
X14183360D1*
X14094460Y2448560D1*
Y2169160D1*
X13878560Y1953260D1*
X12659360D1*
X12392660Y1686560D1*
Y1508760D1*
X12519660Y1381760D1*
X14363360Y2816360D2*
Y2679360D1*
X14259560Y2575560D1*
X14157960D1*
X14056360Y2473960D1*
Y2194560D1*
X13853160Y1991360D1*
X12621260D1*
X12265660Y1635760D1*
X14298360Y2816360D2*
Y2677860D1*
X14234160Y2613660D1*
X14132560D1*
X14018260Y2499360D1*
Y2219960D1*
X13827760Y2029460D1*
X12481560D1*
X12138660Y1686560D1*
Y1508760D1*
X12265660Y1381760D1*
X14233360Y2816360D2*
Y2689060D1*
X14196060Y2651760D1*
X14107160D1*
X13980160Y2524760D1*
Y2245360D1*
X13802360Y2067560D1*
X12443460D1*
X12011660Y1635760D1*
X14103360Y2816360D2*
Y2711460D1*
X13942060Y2550160D1*
Y2270760D1*
X13776960Y2105660D1*
X12303760D1*
X11884660Y1686560D1*
Y1508760D1*
X12011660Y1381760D1*
X14038360Y2816360D2*
Y2709960D1*
X13903960Y2575560D1*
Y2296160D1*
X13751560Y2143760D1*
X12265660D1*
X11757660Y1635760D1*
X13973360Y2816360D2*
Y2708460D1*
X13865860Y2600960D1*
Y2321560D1*
X13726160Y2181860D1*
X12227560D1*
X11808460Y1762760D1*
X11706860D1*
X11630660Y1686560D1*
Y1508760D1*
X11757660Y1381760D1*
X13908360Y2816360D2*
Y2706960D1*
X13827760Y2626360D1*
Y2346960D1*
X13700760Y2219960D1*
X12189460D1*
X11783060Y1813560D1*
X11681460D1*
X11503660Y1635760D1*
X15060860Y3343860D2*
X15193060D1*
X15377160Y3159760D1*
Y2385060D1*
X15250160Y2258060D1*
Y1953260D1*
X15681960Y1521460D1*
X15060860Y3278860D2*
X15194560D1*
X15339060Y3134360D1*
Y2410460D1*
X15212060Y2283460D1*
Y1902460D1*
X15681960Y1432560D1*
X15060860Y3148860D2*
X15184860D1*
X15300960Y3032760D1*
Y2435860D1*
X15173960Y2308860D1*
Y1851660D1*
X15681960Y1343660D1*
X15060860Y3083860D2*
X15186360D1*
X15262860Y3007360D1*
Y2461260D1*
X15135860Y2334260D1*
Y1800860D1*
X15681960Y1254760D1*
X14818360Y2816360D2*
Y2486660D1*
X14869160Y2435860D1*
Y2334260D1*
X14767560Y2232660D1*
X14475460D1*
X14005560Y1762760D1*
X13154660D1*
X13027660Y1635760D1*
X10144760Y4810760D2*
X10194260Y4761260D1*
X10297160D1*
X13649960Y2600960D2*
Y2816360D1*
X13648360D1*
X14558360D2*
Y2925160D1*
X14577060Y2943860D1*
X14881860D1*
X15008860Y2816860D1*
Y2385060D1*
X14688360Y2816360D2*
Y2572560D1*
X14500860Y2385060D1*
X13954760Y1838960D1*
X12976860D1*
X12773660Y1635760D1*
X14623360Y2816360D2*
Y2659960D1*
X14348460Y2385060D1*
X14246860D1*
Y2194560D1*
X13929360Y1877060D1*
X12837160D1*
X12646660Y1686560D1*
Y1508760D1*
X12773660Y1381760D1*
X14753360Y2816360D2*
Y2385060D1*
X14754860D1*
X14640560Y2270760D1*
X14450060D1*
X13980160Y1800860D1*
X13014960D1*
X12900660Y1686560D1*
Y1508760D1*
X13027660Y1381760D1*
X10867160Y4031260D2*
Y3832860D1*
X15580440Y3997960D2*
Y5953080D1*
X15427960Y4302260D2*
D14*
Y4417060D1*
X13967460Y4442460D2*
X13973360Y4448360D1*
Y4586360D1*
X15060860Y3408860D2*
X14912160D1*
X14907260Y3413760D1*
X15060860Y3213860D2*
X14910560D1*
X14907260Y3210560D1*
X12690860Y3473860D2*
X12827860D1*
X12837160Y3464560D1*
X12998360Y2816360D2*
Y2965360D1*
X13002260Y2969260D1*
X13063360Y4586360D2*
D15*
Y4442460D1*
X13065760D1*
X12690860Y4123860D2*
D14*
X12837160D1*
Y4124960D1*
X11187160Y5171260D2*
Y5013960D1*
X11186160D1*
X10297160Y4841260D2*
X10457160D1*
X10462260Y4836160D1*
X11437160Y4521260D2*
X11275060D1*
Y4505960D1*
X10707160Y4031260D2*
Y4184860D1*
X10703560Y4188460D1*
X4810760Y3248660D2*
X4695960D1*
X4810760Y2740660D2*
X4694940D1*
X13388360Y4586360D2*
D15*
Y4442460D1*
X13323360D1*
Y4586360D1*
Y4442460D2*
X13258360D1*
Y4586360D1*
Y4442460D2*
X13193360D1*
Y4586360D1*
Y4442460D2*
X13128360D1*
Y4586360D1*
Y4442460D2*
X13063360D1*
X2207260Y3324860D2*
D14*
X2308860D1*
X14246860Y1623060D2*
X14437360Y1432560D1*
X14818860D1*
X4695960Y2994660D2*
X4810760D1*
X3896360Y1432560D2*
D13*
Y1534660D1*
X4810760Y3248660D2*
D14*
Y2994660D1*
Y2740660D1*
X14691360Y4531360D2*
D13*
X14688360Y4586360D1*
Y4706160D1*
X14919960Y4937760D1*
X15199360D1*
Y4683760D2*
X15123160Y4759960D1*
X14869160D1*
X14818360Y4709160D1*
Y4586360D1*
X10627160Y4031260D2*
Y2930960D1*
X10513060Y2816860D1*
Y2677160D1*
X10787160Y4031260D2*
Y2836960D1*
X10767060Y2816860D1*
Y2677160D1*
X12690860Y4058860D2*
X12745860Y4061460D1*
X11250680Y3680460D2*
X11262360D1*
X11187160Y3755660D1*
Y4031260D1*
X11250680Y3680460D2*
X11363960D1*
X12164060D2*
X12542460Y4058860D1*
X12690860D1*
X11275060Y2677160D2*
Y2816860D1*
X11250680Y2841240D1*
Y3680460D1*
X13586460Y2664460D2*
Y2816360D1*
X13583360D1*
X10297160Y4361260D2*
X10177860D1*
X10030460Y4213860D1*
Y3350260D1*
X9497060Y2816860D1*
Y2677160D1*
X2016760Y3070860D2*
X1889760D1*
X1762760Y3197860D1*
X1483360D1*
X1356360Y3070860D1*
X2017260Y3324860D2*
X1610360D1*
X10547160Y4031260D2*
Y3104960D1*
X10259060Y2816860D1*
Y2677160D1*
X7316740Y1731280D2*
X7570740D1*
X10297160Y4201260D2*
X10182960D1*
X10132060Y4150360D1*
Y2943860D1*
X10005060Y2816860D1*
Y2677160D1*
X10297160Y4281260D2*
X10174060D1*
X10081260Y4188460D1*
Y3147060D1*
X9751060Y2816860D1*
Y2677160D1*
X10297160Y4921260D2*
X9627860D1*
X9230360Y5318760D1*
Y5826760D1*
X9103360Y5953760D1*
X4168520Y2994660D2*
D14*
X4505960D1*
X4168520Y1724660D2*
X3896360D1*
X10707160Y5171260D2*
D13*
Y5492360D1*
X10246440Y5953080D1*
X12690860Y4188860D2*
X12570860D1*
X12278360Y3896360D1*
X11262360D2*
Y4031260D1*
X11267160D1*
X14558360Y4586360D2*
Y4931760D1*
X15453360Y5826760D1*
Y6080160D1*
X15326440Y6207080D1*
X14428360Y4586360D2*
Y4928760D1*
X15326440Y5826840D1*
Y5953080D1*
X14363360Y4586360D2*
Y4990760D1*
X15199360Y5826760D1*
Y6080160D1*
X15072440Y6207080D1*
X14298360Y4586360D2*
Y5052760D1*
X15072440Y5826840D1*
Y5953080D1*
X14233360Y4586360D2*
Y5114760D1*
X14945360Y5826760D1*
Y6080160D1*
X14818440Y6207080D1*
X14168360Y4586360D2*
Y5176760D1*
X14818440Y5826840D1*
Y5953080D1*
X14103360Y4586360D2*
Y5238760D1*
X14691360Y5826760D1*
Y6080160D1*
X14564440Y6207080D1*
X14038360Y4586360D2*
Y5300760D1*
X14564440Y5826840D1*
Y5953080D1*
X13908360Y4586360D2*
Y5297760D1*
X14437360Y5826760D1*
Y6080160D1*
X14310440Y6207080D1*
X13843360Y4586360D2*
Y5359760D1*
X14310440Y5826840D1*
Y5953080D1*
X13713360Y4586360D2*
Y5356760D1*
X14183360Y5826760D1*
Y6080160D1*
X14056440Y6207080D1*
X13648360Y4586360D2*
Y5418760D1*
X14056440Y5826840D1*
Y5953080D1*
X13583360Y4586360D2*
Y5480760D1*
X13929360Y5826760D1*
Y6080160D1*
X13802440Y6207080D1*
X13518360Y4586360D2*
Y5542760D1*
X13802440Y5826840D1*
Y5953080D1*
X13453360Y4586360D2*
Y5604760D1*
X13675360Y5826760D1*
Y6080160D1*
X13548440Y6207080D1*
Y5953080D2*
Y5826840D1*
X12405360Y4683760D1*
X11439660D1*
X11437160Y4681260D1*
X13294440Y6207080D2*
X13421360Y6080160D1*
Y5826760D1*
X12355860Y4761260D1*
X11437160D1*
X13294440Y5953080D2*
Y5826840D1*
X12308860Y4841260D1*
X11437160D1*
X13040440Y6207080D2*
X13167360Y6080160D1*
Y5826760D1*
X12261860Y4921260D1*
X11437160D1*
X13040440Y5953080D2*
Y5826840D1*
X12214860Y5001260D1*
X11437160D1*
X11267160Y5171260D2*
Y5298160D1*
X11338560Y5369560D1*
X12506960D1*
X12913360Y5775960D1*
Y6080160D1*
X12786440Y6207080D1*
X11107160Y5171260D2*
Y5290560D1*
X11236960Y5420360D1*
X12481560D1*
X12786440Y5725240D1*
Y5953080D1*
X10947160Y5171260D2*
Y5333760D1*
X11084560Y5471160D1*
X12456160D1*
X12659360Y5674360D1*
Y6080160D1*
X12532440Y6207080D1*
X12690860Y3993860D2*
X12579060D1*
X12125960Y3540760D1*
Y2372360D1*
X12202160Y2296160D1*
X12690860Y3928860D2*
X12577560D1*
X12164060Y3515360D1*
Y2461260D1*
X12265660Y2359660D1*
X12690860Y3863860D2*
X12576060D1*
X12202160Y3489960D1*
Y2550160D1*
X12329160Y2423160D1*
X12690860Y3798860D2*
X12574560D1*
X12240260Y3464560D1*
Y2639060D1*
X12392660Y2486660D1*
X12690860Y3733860D2*
X12573060D1*
X12278360Y3439160D1*
Y2727960D1*
X12456160Y2550160D1*
X12690860Y3668860D2*
X12571560D1*
X12316460Y3413760D1*
Y2816860D1*
X12519660Y2613660D1*
X12690860Y3603860D2*
X12570060D1*
X12354560Y3388360D1*
Y2905760D1*
X12583160Y2677160D1*
X12690860Y3538860D2*
X12568560D1*
X12392660Y3362960D1*
Y2994660D1*
X12646660Y2740660D1*
X6804660Y2791460D2*
Y1735360D1*
X6808740Y1731280D1*
X15060860Y3993860D2*
X15178060D1*
X15681960Y3489960D1*
Y1686560D1*
X15060860Y3928860D2*
X15179560D1*
X15643860Y3464560D1*
Y1788160D1*
X15618460Y1762760D1*
X15060860Y3863860D2*
X15181060D1*
X15605760Y3439160D1*
Y1877060D1*
X15567660Y1838960D1*
X15060860Y3798860D2*
X15182560D1*
X15567660Y3413760D1*
Y1965960D1*
X15516860Y1915160D1*
X15060860Y3733860D2*
X15184060D1*
X15529560Y3388360D1*
Y2054860D1*
X15466060Y1991360D1*
X15060860Y3668860D2*
X15185560D1*
X15491460Y3362960D1*
Y2143760D1*
X15415260Y2067560D1*
X15060860Y3538860D2*
X15188560D1*
X15453360Y3274060D1*
Y2232660D1*
X15364460Y2143760D1*
X15060860Y3473860D2*
X15190060D1*
X15415260Y3248660D1*
Y2321560D1*
X15313660Y2219960D1*
X11027160Y5171260D2*
Y5306060D1*
X10467160Y4031260D2*
X10462260D1*
Y3896360D1*
X10547160Y5171260D2*
Y5369560D1*
X10947160Y4031260D2*
Y3896360D1*
X4168520Y1978660D2*
X4455160D1*
X4505960Y1927860D1*
Y1813560D1*
X13453360Y2816360D2*
X13459460D1*
Y2588260D1*
X4168520Y1470660D2*
X4455160D1*
X4505960Y1521460D1*
Y1623560D1*
X13388360Y2816360D2*
X13383260D1*
Y2677160D1*
X13319760Y2613660D1*
X4168520Y3248660D2*
X4505960D1*
X12690860Y3408860D2*
X12578260D1*
X12468860Y3299460D1*
Y3185160D1*
X4168520Y2740660D2*
X4504940D1*
X12690860Y3343860D2*
X12589460D1*
X12545060Y3299460D1*
Y3147060D1*
X12494260Y3096260D1*
X8332740Y1731280D2*
D16*
X8586740D1*
Y1477280D2*
Y1731280D1*
X12278440Y6207080D2*
X12532440Y5953080D1*
D17*
D3*
X11107160Y4031260D2*
D13*
Y3726940D1*
X11060680Y3680460D1*
X12532440Y4671140D2*
D14*
X12462560Y4601260D1*
X11437160D1*
X12532440Y5953080D2*
X12215620Y5636260D1*
X11058660D1*
X8586740Y1731280D2*
X8593360Y1724660D1*
X10297160Y4441260D2*
D18*
X9762560D1*
X9560560Y4239260D1*
X15008860Y1623060D2*
D14*
X14881860Y1750060D1*
X14627860D1*
X14500860Y1623060D1*
X15008860D2*
Y1432560D1*
X8586740Y1477280D2*
D19*
X8974360Y1089660D1*
X10436860D1*
X11249660D1*
X14805660D1*
X15008860Y1292860D1*
Y1432560D1*
X10436860Y1293360D2*
D14*
Y1089660D1*
X11249660Y1381760D2*
D16*
Y1089660D1*
X2206760Y3070860D2*
D13*
X2321560D1*
X8586740Y3422380D2*
D14*
Y1731280D1*
Y3422380D2*
X8921480D1*
X9065260Y3566160D1*
Y3959860D1*
X9217660Y4112260D1*
X9433560D1*
X9560560Y4239260D1*
X12748260Y2359660D2*
D13*
Y3083560D1*
X12690560D1*
X12690860Y3083860D1*
X12933360Y2816360D2*
Y2657160D1*
X13230860Y2359660D1*
X3406520Y1978660D2*
D20*
X3172460D1*
X2651760Y1457960D1*
X2016760D1*
X1927860Y1546860D1*
Y1712570D1*
X2079680Y1864390D1*
X3058160Y2550160D2*
Y2067560D1*
X2600960Y1610360D1*
X2079680D1*
X3406520Y2740660D2*
X2893060D1*
X2702560Y2550160D1*
Y1915160D1*
X2524790Y1737390D1*
X2333680D1*
D48*
X15212060Y4061460D3*
X11027160Y3832860D3*
D3*
X11567160Y4441260D3*
X12429560D3*
X11617960Y4366260D3*
X12379960D3*
X10068560Y4645660D3*
X12379960Y4277360D3*
X11617960D3*
X12430760Y4201260D3*
X11567160D3*
X15681960Y1521460D3*
Y1432560D3*
Y1343660D3*
Y1254760D3*
X10144760Y4810760D3*
X13649960Y2600960D3*
X10867160Y3832860D3*
X15580440Y3997960D3*
X11363960Y3680460D3*
X12164060D3*
X13586460Y2664460D3*
X12278360Y3896360D3*
X11262360D3*
X12646660Y2740660D3*
X6804660Y2791460D3*
X15681960Y1686560D3*
X15618460Y1762760D3*
X15567660Y1838960D3*
X15516860Y1915160D3*
X15466060Y1991360D3*
X15415260Y2067560D3*
X15364460Y2143760D3*
X15313660Y2219960D3*
X11027160Y5306060D3*
X10462260Y3896360D3*
X10547160Y5369560D3*
X10947160Y3896360D3*
X13459460Y2588260D3*
X13319760Y2613660D3*
X12468860Y3185160D3*
X12494260Y3096260D3*
D50*
X12532440Y4671140D3*
D48*
X2321560Y3070860D3*
X8586740Y3422380D3*
D3*
X13535660Y4099560D3*
X13649960Y4201160D3*
D50*
X13967460Y4442460D3*
X14907260Y3413760D3*
Y3210560D3*
D48*
X14437360Y3388360D3*
X10881360Y4696460D3*
D50*
X4810760Y2994660D3*
X2308860Y3324860D3*
X12837160Y3464560D3*
D48*
X12583160Y2677160D3*
D50*
X13002260Y2969260D3*
X13065760Y4442460D3*
X12837160Y4124960D3*
D48*
X10881360Y4772660D3*
Y4620260D3*
X13776960Y4099560D3*
X13294360D3*
D50*
X11275060Y4505960D3*
X10462260Y4836160D3*
X11186160Y5013960D3*
X10703560Y4188460D3*
X4810760Y2740660D3*
Y3248660D3*
D48*
X12519660Y2613660D3*
X12456160Y2550160D3*
X12392660Y2486660D3*
X12329160Y2423160D3*
X12265660Y2359660D3*
X12202160Y2296160D3*
X13421360Y4201160D3*
D50*
X13002260Y3782060D3*
X13103860D3*
X13205460D3*
D48*
X14208760Y3388360D3*
X14665960D3*
X14551660Y3274060D3*
X14323060D3*
D50*
X15427960Y4417060D3*
X3896360Y1432560D3*
X10439200Y5041027D2*
D15*
X11111190D1*
X11261130D2*
X11298120D1*
X10423723Y5015960D2*
X11106427D1*
X11265893D2*
X11310420D1*
X10423723Y4990893D2*
X11110000D1*
X11262320D2*
X11310420D1*
X10423723Y4965827D2*
X11123097D1*
X11249223D2*
X11310420D1*
X10423723Y4940760D2*
X11159213D1*
X11213107D2*
X11310420D1*
X10423723Y4915693D2*
X11310420D1*
X10519370Y4890627D2*
X11310420D1*
X10536040Y4865560D2*
X11310420D1*
X10541993Y4840493D2*
X11310420D1*
X10539213Y4815427D2*
X11310420D1*
X10526910Y4790360D2*
X11310420D1*
X10495557Y4765293D2*
X11310420D1*
X10423723Y4740227D2*
X11310420D1*
X10423723Y4715160D2*
X11310420D1*
X10423723Y4690093D2*
X11310420D1*
X10423723Y4665027D2*
X11310420D1*
X10423723Y4639960D2*
X11310420D1*
X10423723Y4614893D2*
X11310420D1*
X10423723Y4589827D2*
X11310420D1*
X10423723Y4564760D2*
X11222713D1*
X10423723Y4539693D2*
X11203267D1*
X10423723Y4514627D2*
X11195723D1*
X10423723Y4489560D2*
X11196917D1*
X10423723Y4464493D2*
X11207233D1*
X10423723Y4439427D2*
X11233427D1*
X10423723Y4414360D2*
X11310420D1*
X10423723Y4389293D2*
X11310420D1*
X10423723Y4364227D2*
X11310420D1*
X10423723Y4339160D2*
X11310420D1*
X10423723Y4314093D2*
X11310420D1*
X10423723Y4289027D2*
X11310420D1*
X10423723Y4263960D2*
X10684947D1*
X10722173D2*
X11310420D1*
X10423723Y4238893D2*
X10642480D1*
X10764640D2*
X11310420D1*
X10423723Y4213827D2*
X10628193D1*
X10778927D2*
X11310420D1*
X10423723Y4188760D2*
X10623827D1*
X10783293D2*
X11310420D1*
X10423723Y4163693D2*
X10627797D1*
X10779323D2*
X11310420D1*
X10435510Y4155297D2*
X10526197Y4154900D1*
X10551623Y4155297D1*
X10606197Y4154900D1*
X10633610Y4155297D1*
X10627607Y4174557D1*
X10626353Y4187180D1*
X10627187Y4199837D1*
X10630080Y4212190D1*
X10634957Y4223900D1*
X10641687Y4234653D1*
X10650083Y4244160D1*
X10659927Y4252167D1*
X10670947Y4258450D1*
X10682843Y4262847D1*
X10695303Y4265233D1*
X10707987Y4265550D1*
X10720547Y4263783D1*
X10732653Y4259987D1*
X10743970Y4254257D1*
X10754197Y4246753D1*
X10763060Y4237677D1*
X10770313Y4227270D1*
X10775767Y4215817D1*
X10779273Y4203623D1*
X10780777Y4188460D1*
X10779733Y4175817D1*
X10776637Y4163517D1*
X10772990Y4155157D1*
X10846197Y4155297D1*
X10926197D1*
X11006197D1*
X11086197D1*
X11166197D1*
X11246197D1*
X11301390D1*
X11311367Y4162933D1*
X11313103Y4163057D1*
X11313520Y4260297D1*
X11313123Y4285723D1*
X11313520Y4340297D1*
X11313123Y4365723D1*
X11313520Y4420297D1*
X11313123Y4438977D1*
X11306510Y4435440D1*
X11294537Y4431240D1*
X11282040Y4429060D1*
X11269357Y4428953D1*
X11256823Y4430927D1*
X11244787Y4434927D1*
X11233563Y4440843D1*
X11223460Y4448517D1*
X11214753Y4457740D1*
X11207670Y4468263D1*
X11202407Y4479807D1*
X11199107Y4492057D1*
X11197853Y4504680D1*
X11198687Y4517337D1*
X11201580Y4529690D1*
X11206457Y4541400D1*
X11213187Y4552153D1*
X11221583Y4561660D1*
X11231427Y4569667D1*
X11242447Y4575950D1*
X11254343Y4580347D1*
X11266803Y4582733D1*
X11279487Y4583050D1*
X11292047Y4581283D1*
X11304153Y4577487D1*
X11310163Y4574443D1*
X11313123Y4575243D1*
X11313520Y4740297D1*
X11313123Y4765723D1*
X11313520Y4820297D1*
X11313123Y4845723D1*
X11313520Y4900297D1*
X11313123Y4925723D1*
X11313520Y4980297D1*
X11313123Y5005723D1*
Y5026760D1*
X11307873Y5027813D1*
X11300587Y5037567D1*
X11300460Y5046900D1*
X11255950Y5047223D1*
X11261873Y5029123D1*
X11263377Y5013960D1*
X11262333Y5001317D1*
X11259237Y4989017D1*
X11254167Y4977387D1*
X11247260Y4966747D1*
X11238703Y4957380D1*
X11228730Y4949540D1*
X11217610Y4943440D1*
X11205637Y4939240D1*
X11193140Y4937060D1*
X11180457Y4936953D1*
X11167923Y4938927D1*
X11155887Y4942927D1*
X11144663Y4948843D1*
X11134560Y4956517D1*
X11125853Y4965740D1*
X11118770Y4976263D1*
X11113507Y4987807D1*
X11110207Y5000057D1*
X11108953Y5012680D1*
X11109787Y5025337D1*
X11112680Y5037690D1*
X11116797Y5047570D1*
X11077297Y5047223D1*
X11048123Y5047620D1*
X11022697Y5047223D1*
X10968123Y5047620D1*
X10942697Y5047223D1*
X10888123Y5047620D1*
X10862697Y5047223D1*
X10808123Y5047620D1*
X10803017Y5047223D1*
X10648123Y5047620D1*
X10622697Y5047223D1*
X10568123Y5047620D1*
X10542697Y5047223D1*
X10488123Y5047620D1*
X10462697Y5047223D1*
X10436900D1*
X10436860Y5039360D1*
X10430643Y5028647D1*
X10424160Y5026660D1*
X10421383D1*
X10421197Y4942223D1*
Y4901317D1*
X10429647Y4906150D1*
X10441543Y4910547D1*
X10454003Y4912933D1*
X10466687Y4913250D1*
X10479247Y4911483D1*
X10491353Y4907687D1*
X10502670Y4901957D1*
X10512897Y4894453D1*
X10521760Y4885377D1*
X10529013Y4874970D1*
X10534467Y4863517D1*
X10537973Y4851323D1*
X10539477Y4836160D1*
X10538433Y4823517D1*
X10535337Y4811217D1*
X10530267Y4799587D1*
X10523360Y4788947D1*
X10514803Y4779580D1*
X10504830Y4771740D1*
X10493710Y4765640D1*
X10481737Y4761440D1*
X10469240Y4759260D1*
X10456557Y4759153D1*
X10444023Y4761127D1*
X10431987Y4765127D1*
X10421113Y4770857D1*
X10420800Y4702223D1*
X10421197Y4676797D1*
X10420800Y4622223D1*
X10421197Y4596797D1*
X10420800Y4542223D1*
X10421197Y4516797D1*
X10420800Y4462223D1*
X10421197Y4436797D1*
X10420800Y4382223D1*
X10421197Y4356797D1*
X10420800Y4302223D1*
X10421197Y4276797D1*
X10420800Y4222223D1*
X10421197Y4196797D1*
Y4163060D1*
X10424160D1*
X10434873Y4156843D1*
X10429673Y4161603D1*
X11107160Y4155247D2*
D14*
Y4031260D1*
X11313173Y4601260D2*
X11437160D1*
X10787160Y5171260D2*
Y5047273D1*
X10297160Y4441260D2*
X10421147D1*
X12903000Y4444127D2*
D15*
X12986027D1*
X13435210D2*
X13887727D1*
X14047193D2*
X14854120D1*
X12903000Y4419060D2*
X12989600D1*
X13428463D2*
X13891300D1*
X14043620D2*
X14854120D1*
X12903000Y4393993D2*
X13003093D1*
X13128427D2*
X13904793D1*
X14030127D2*
X14854120D1*
X12903000Y4368927D2*
X13039607D1*
X13091913D2*
X13941307D1*
X13993613D2*
X14854120D1*
X12817277Y4343860D2*
X14934287D1*
X12817277Y4318793D2*
X14934287D1*
X12817277Y4293727D2*
X14934287D1*
X12817277Y4268660D2*
X14934287D1*
X12817277Y4243593D2*
X14934287D1*
X12817277Y4218527D2*
X14934287D1*
X12875220Y4193460D2*
X14934287D1*
X12903400Y4168393D2*
X14934287D1*
X12914510Y4143327D2*
X14934287D1*
X12916497Y4118260D2*
X14934287D1*
X12910147Y4093193D2*
X14934287D1*
X12891890Y4068127D2*
X14934287D1*
X12817277Y4043060D2*
X14934287D1*
X12817277Y4017993D2*
X14934287D1*
X12817277Y3992927D2*
X14934287D1*
X12817277Y3967860D2*
X14934287D1*
X12817277Y3942793D2*
X14934287D1*
X12817277Y3917727D2*
X14934287D1*
X12817277Y3892660D2*
X14934287D1*
X12817277Y3867593D2*
X14934287D1*
X12817277Y3842527D2*
X14934287D1*
X12817277Y3817460D2*
X14934287D1*
X12817277Y3792393D2*
X14934287D1*
X12817277Y3767327D2*
X14934287D1*
X12817277Y3742260D2*
X14934287D1*
X12817277Y3717193D2*
X14934287D1*
X12817277Y3692127D2*
X14934287D1*
X12817277Y3667060D2*
X14934287D1*
X12817277Y3641993D2*
X14934287D1*
X12817277Y3616927D2*
X14934287D1*
X12817277Y3591860D2*
X14934287D1*
X12817277Y3566793D2*
X14934287D1*
X12817277Y3541727D2*
X12832867D1*
X12841337D2*
X14934287D1*
X12896650Y3516660D2*
X14934287D1*
X12912130Y3491593D2*
X14934287D1*
X12916893Y3466527D2*
X14848563D1*
X12913320Y3441460D2*
X14832687D1*
X12899827Y3416393D2*
X14827527D1*
X12864107Y3391327D2*
X14830703D1*
X12817277Y3366260D2*
X14843800D1*
X12817277Y3341193D2*
X14878327D1*
X12817277Y3316127D2*
X14934287D1*
X12817277Y3291060D2*
X14934287D1*
X12817277Y3265993D2*
X14850943D1*
X12817277Y3240927D2*
X14833877D1*
X12817277Y3215860D2*
X14827527D1*
X12817277Y3190793D2*
X14830307D1*
X12817277Y3165727D2*
X14841817D1*
X12817277Y3140660D2*
X14871977D1*
X12817277Y3115593D2*
X14934287D1*
X12817277Y3090527D2*
X14934287D1*
X12817277Y3065460D2*
X14934287D1*
X12900620Y3040393D2*
X12969757D1*
X13034763D2*
X14841420D1*
X12903000Y3015327D2*
X12937610D1*
X13066910D2*
X14841420D1*
X12903000Y2990260D2*
X12925307D1*
X13079213D2*
X14841420D1*
X12903000Y2965193D2*
X12922527D1*
X13081993D2*
X14533443D1*
X14043633Y4429817D2*
X14040537Y4417517D1*
X14035467Y4405887D1*
X14028560Y4395247D1*
X14020003Y4385880D1*
X14010030Y4378040D1*
X13998910Y4371940D1*
X13986937Y4367740D1*
X13974440Y4365560D1*
X13961757Y4365453D1*
X13949223Y4367427D1*
X13937187Y4371427D1*
X13925963Y4377343D1*
X13915860Y4385017D1*
X13907153Y4394240D1*
X13900070Y4404763D1*
X13894807Y4416307D1*
X13891507Y4428557D1*
X13890253Y4441180D1*
X13891087Y4453837D1*
X13893167Y4462713D1*
X13854323Y4462323D1*
X13789323D1*
X13724323D1*
X13659323D1*
X13594323D1*
X13529323D1*
X13464323D1*
X13432387D1*
X13432557Y4442460D1*
X13430743Y4429933D1*
X13425457Y4418437D1*
X13417127Y4408907D1*
X13406437Y4402130D1*
X13393870Y4398663D1*
X13350260Y4398263D1*
X13129063D1*
X13118303Y4385880D1*
X13108330Y4378040D1*
X13097210Y4371940D1*
X13085237Y4367740D1*
X13072740Y4365560D1*
X13060057Y4365453D1*
X13047523Y4367427D1*
X13035487Y4371427D1*
X13024263Y4377343D1*
X13014160Y4385017D1*
X13005453Y4394240D1*
X12998370Y4404763D1*
X12993107Y4416307D1*
X12989807Y4428557D1*
X12988553Y4441180D1*
X12989387Y4453837D1*
X12991467Y4462713D1*
X12950797Y4462323D1*
X12944323Y4462720D1*
X12949297Y4462323D1*
X12900480D1*
X12900660Y4366260D1*
X12894443Y4355547D1*
X12887960Y4353560D1*
X12814537D1*
X12814897Y4283997D1*
X12814500Y4264823D1*
X12814897Y4269797D1*
X12814500Y4199823D1*
X12816443Y4199347D1*
X12828903Y4201733D1*
X12841587Y4202050D1*
X12854147Y4200283D1*
X12866253Y4196487D1*
X12877570Y4190757D1*
X12887797Y4183253D1*
X12896660Y4174177D1*
X12903913Y4163770D1*
X12909367Y4152317D1*
X12912873Y4140123D1*
X12914377Y4124960D1*
X12913333Y4112317D1*
X12910237Y4100017D1*
X12905167Y4088387D1*
X12898260Y4077747D1*
X12889703Y4068380D1*
X12879730Y4060540D1*
X12868610Y4054440D1*
X12856637Y4050240D1*
X12844140Y4048060D1*
X12831457Y4047953D1*
X12814787Y4051303D1*
X12814500Y4004823D1*
X12814897Y4009797D1*
X12814500Y3939823D1*
X12814897Y3944797D1*
X12814500Y3874823D1*
X12814897Y3879797D1*
X12814500Y3809823D1*
X12814897Y3814797D1*
X12814500Y3744823D1*
X12814897Y3749797D1*
X12814500Y3679823D1*
X12814897Y3684797D1*
X12814500Y3614823D1*
X12814897Y3619797D1*
X12814500Y3549823D1*
X12814897Y3554797D1*
Y3538523D1*
X12828903Y3541333D1*
X12841587Y3541650D1*
X12854147Y3539883D1*
X12866253Y3536087D1*
X12877570Y3530357D1*
X12887797Y3522853D1*
X12896660Y3513777D1*
X12903913Y3503370D1*
X12909367Y3491917D1*
X12912873Y3479723D1*
X12914377Y3464560D1*
X12913333Y3451917D1*
X12910237Y3439617D1*
X12905167Y3427987D1*
X12898260Y3417347D1*
X12889703Y3407980D1*
X12879730Y3400140D1*
X12868610Y3394040D1*
X12856637Y3389840D1*
X12844140Y3387660D1*
X12831457Y3387553D1*
X12814787Y3390903D1*
X12814500Y3354823D1*
X12814897Y3359797D1*
X12814500Y3289823D1*
X12814897Y3284637D1*
X12814500Y3159823D1*
X12814897Y3164797D1*
X12814500Y3094823D1*
X12814897Y3099797D1*
Y3045423D1*
X12887960Y3045460D1*
X12898673Y3039243D1*
X12900660Y3032760D1*
Y2940287D1*
X12930520Y2940397D1*
X12926307Y2955357D1*
X12925053Y2967980D1*
X12925887Y2980637D1*
X12928780Y2992990D1*
X12933657Y3004700D1*
X12940387Y3015453D1*
X12948783Y3024960D1*
X12958627Y3032967D1*
X12969647Y3039250D1*
X12981543Y3043647D1*
X12994003Y3046033D1*
X13006687Y3046350D1*
X13019247Y3044583D1*
X13031353Y3040787D1*
X13042670Y3035057D1*
X13052897Y3027553D1*
X13061760Y3018477D1*
X13069013Y3008070D1*
X13074467Y2996617D1*
X13077973Y2984423D1*
X13079477Y2969260D1*
X13078433Y2956617D1*
X13073593Y2940320D1*
X13182397Y2940000D1*
X13177423Y2940397D1*
X13247397Y2940000D1*
X13242423Y2940397D1*
X13312397Y2940000D1*
X13307423Y2940397D1*
X13377397Y2940000D1*
X13372423Y2940397D1*
X13442397Y2940000D1*
X13437423Y2940397D1*
X13507397Y2940000D1*
X13502423Y2940397D1*
X13572397Y2940000D1*
X13567423Y2940397D1*
X13637397Y2940000D1*
X13632423Y2940397D1*
X13702397Y2940000D1*
X13697423Y2940397D1*
X13767397Y2940000D1*
X13762423Y2940397D1*
X13832397Y2940000D1*
X13827423Y2940397D1*
X13897397Y2940000D1*
X13892423Y2940397D1*
X13962397Y2940000D1*
X13957423Y2940397D1*
X14027397Y2940000D1*
X14022423Y2940397D1*
X14092397Y2940000D1*
X14087423Y2940397D1*
X14157397Y2940000D1*
X14152423Y2940397D1*
X14222397Y2940000D1*
X14217423Y2940397D1*
X14287397Y2940000D1*
X14282423Y2940397D1*
X14352397Y2940000D1*
X14347423Y2940397D1*
X14417397Y2940000D1*
X14412423Y2940397D1*
X14482397Y2940000D1*
X14477423Y2940397D1*
X14516713D1*
X14519947Y2947020D1*
X14527110Y2956410D1*
X14545810Y2975110D1*
X14555947Y2982687D1*
X14565357Y2986477D1*
X14577060Y2988057D1*
X14844157D1*
X14843760Y3045460D1*
X14849977Y3056173D1*
X14856460Y3058160D1*
X14937027D1*
X14936823Y3137897D1*
Y3138877D1*
X14926737Y3135840D1*
X14914240Y3133660D1*
X14901557Y3133553D1*
X14889023Y3135527D1*
X14876987Y3139527D1*
X14865763Y3145443D1*
X14855660Y3153117D1*
X14846953Y3162340D1*
X14839870Y3172863D1*
X14834607Y3184407D1*
X14831307Y3196657D1*
X14830053Y3209280D1*
X14830887Y3221937D1*
X14833780Y3234290D1*
X14838657Y3246000D1*
X14845387Y3256753D1*
X14853783Y3266260D1*
X14863627Y3274267D1*
X14874647Y3280550D1*
X14886543Y3284947D1*
X14899003Y3287333D1*
X14911687Y3287650D1*
X14924247Y3285883D1*
X14936707Y3281907D1*
X14937220Y3332897D1*
X14936823Y3327923D1*
Y3342610D1*
X14926737Y3339040D1*
X14914240Y3336860D1*
X14901557Y3336753D1*
X14889023Y3338727D1*
X14876987Y3342727D1*
X14865763Y3348643D1*
X14855660Y3356317D1*
X14846953Y3365540D1*
X14839870Y3376063D1*
X14834607Y3387607D1*
X14831307Y3399857D1*
X14830053Y3412480D1*
X14830887Y3425137D1*
X14833780Y3437490D1*
X14838657Y3449200D1*
X14845387Y3459953D1*
X14853783Y3469460D1*
X14863627Y3477467D1*
X14874647Y3483750D1*
X14886543Y3488147D1*
X14899003Y3490533D1*
X14911687Y3490850D1*
X14924247Y3489083D1*
X14936707Y3485107D1*
X14937220Y3527897D1*
X14936823Y3522923D1*
X14937220Y3592897D1*
X14936823Y3587923D1*
X14937220Y3657897D1*
X14936823Y3652923D1*
X14937220Y3722897D1*
X14936823Y3717923D1*
X14937220Y3787897D1*
X14936823Y3782923D1*
X14937220Y3852897D1*
X14936823Y3847923D1*
X14937220Y3917897D1*
X14936823Y3912923D1*
X14937220Y3982897D1*
X14936823Y3977923D1*
X14937220Y4047897D1*
X14936823Y4042923D1*
X14937220Y4112897D1*
X14936823Y4107923D1*
X14937220Y4177897D1*
X14936823Y4172923D1*
X14937220Y4242897D1*
X14936823Y4237923D1*
X14937220Y4307897D1*
X14936823Y4302923D1*
Y4353327D1*
X14869160Y4353560D1*
X14858447Y4359777D1*
X14856460Y4366260D1*
Y4462700D1*
X14783497Y4462323D1*
X14764323Y4462720D1*
X14769297Y4462323D1*
X14699323Y4462720D1*
X14704297Y4462323D1*
X14634323Y4462720D1*
X14639297Y4462323D1*
X14569323Y4462720D1*
X14574297Y4462323D1*
X14504323Y4462720D1*
X14509297Y4462323D1*
X14439323Y4462720D1*
X14444297Y4462323D1*
X14374323Y4462720D1*
X14379297Y4462323D1*
X14309323Y4462720D1*
X14314297Y4462323D1*
X14244323Y4462720D1*
X14249297Y4462323D1*
X14179323Y4462720D1*
X14184297Y4462323D1*
X14114323Y4462720D1*
X14119297Y4462323D1*
X14049323Y4462720D1*
X14054297Y4462323D1*
X14041993D1*
X14044633Y4445023D1*
X14043633Y4429817D1*
X14493360Y4586360D2*
D14*
Y4462373D1*
X13778360Y4586360D2*
Y4462373D1*
X12690860Y3278860D2*
X12814847D1*
X13323360Y2940347D2*
Y2816360D1*
X14168360Y2940347D2*
Y2816360D1*
X14936873Y3603860D2*
X15060860D1*
D24*
X4505960Y2994660D3*
X4695960D3*
X15008860Y1432560D3*
X14818860D3*
D21*
X3896360Y1724660D3*
Y1534660D3*
D25*
X3058160Y3185160D3*
D26*
Y2550160D3*
D24*
X4505960Y3248660D3*
X4695960D3*
X4504940Y2740660D3*
X4694940D3*
D25*
X2702560Y3185160D3*
D26*
Y2550160D3*
D27*
X1356360Y3070860D3*
D28*
Y3324860D3*
D27*
X1610360Y3070860D3*
D28*
Y3324860D3*
D29*
X9484440Y5953080D3*
D30*
Y6207080D3*
X9738440Y5953080D3*
Y6207080D3*
X9992440Y5953080D3*
Y6207080D3*
X10246440Y5953080D3*
Y6207080D3*
X10500440Y5953080D3*
Y6207080D3*
X10754440Y5953080D3*
Y6207080D3*
X11008440Y5953080D3*
Y6207080D3*
X11262440Y5953080D3*
Y6207080D3*
X11516440Y5953080D3*
Y6207080D3*
X11770440Y5953080D3*
Y6207080D3*
X12024440Y5953080D3*
Y6207080D3*
X12278440Y5953080D3*
Y6207080D3*
X12532440Y5953080D3*
Y6207080D3*
X12786440Y5953080D3*
Y6207080D3*
X13040440Y5953080D3*
Y6207080D3*
X13294440Y5953080D3*
Y6207080D3*
X13548440Y5953080D3*
Y6207080D3*
X13802440Y5953080D3*
Y6207080D3*
X14056440Y5953080D3*
Y6207080D3*
X14310440Y5953080D3*
Y6207080D3*
X14564440Y5953080D3*
Y6207080D3*
X14818440Y5953080D3*
Y6207080D3*
X15072440Y5953080D3*
Y6207080D3*
X15326440Y5953080D3*
Y6207080D3*
X15580440Y5953080D3*
Y6207080D3*
D29*
X5031740Y1478280D3*
D30*
X5030740Y1731280D3*
X5284740Y1477280D3*
Y1731280D3*
X5538740Y1477280D3*
Y1731280D3*
X5792740Y1477280D3*
Y1731280D3*
X6046740Y1477280D3*
Y1731280D3*
X6300740Y1477280D3*
Y1731280D3*
X6554740Y1477280D3*
Y1731280D3*
X6808740Y1477280D3*
Y1731280D3*
X7062740Y1477280D3*
Y1731280D3*
X7316740Y1477280D3*
Y1731280D3*
X7570740Y1477280D3*
Y1731280D3*
X7824740Y1477280D3*
Y1731280D3*
X8078740Y1477280D3*
Y1731280D3*
X8332740Y1477280D3*
Y1731280D3*
X8586740Y1477280D3*
Y1731280D3*
D87*
X2079680Y1610360D3*
D31*
X2333680Y1737390D3*
X2079680Y1864390D3*
X2333680Y1991390D3*
X2079680Y2118390D3*
X2333680Y2245390D3*
X2079680Y2372390D3*
X2333680Y2499360D3*
D32*
X1749680Y1280360D3*
Y2829360D3*
D33*
X9560560Y3477260D3*
X9306560D3*
Y3731260D3*
X9560560D3*
X9306560Y3985260D3*
X9560560D3*
X9306560Y4239260D3*
X9560560D3*
Y4493260D3*
D34*
X9306560D3*
D29*
X9497060Y2677160D3*
D30*
X9751060D3*
X10005060D3*
X10259060D3*
X10513060D3*
X10767060D3*
X11021060D3*
X11275060D3*
X11529060D3*
X11783060D3*
D35*
X15199360Y4937760D3*
Y4683760D3*
D36*
X13789660Y1635760D3*
D37*
Y1381760D3*
X13535660Y1635760D3*
Y1381760D3*
X13281660Y1635760D3*
Y1381760D3*
X13027660Y1635760D3*
Y1381760D3*
X12773660Y1635760D3*
Y1381760D3*
X12519660Y1635760D3*
Y1381760D3*
X12265660Y1635760D3*
Y1381760D3*
X12011660Y1635760D3*
Y1381760D3*
X11757660Y1635760D3*
Y1381760D3*
X11503660Y1635760D3*
Y1381760D3*
X11249660Y1635760D3*
Y1381760D3*
D38*
X9103360Y5953760D3*
D24*
X2016760Y3070860D3*
X2206760D3*
X2207260Y3324860D3*
X2017260D3*
D21*
X4505960Y1623560D3*
Y1813560D3*
D24*
X11250680Y3680460D3*
X11060680D3*
X10868660Y5636260D3*
X11058660D3*
D21*
X15427960Y4112260D3*
Y4302260D3*
X10436860Y1483360D3*
Y1293360D3*
D40*
X4168520Y3248660D3*
D31*
Y2994660D3*
Y2740660D3*
Y1978660D3*
Y1724660D3*
Y1470660D3*
X3406520D3*
Y1724660D3*
Y1978660D3*
Y2740660D3*
Y2994660D3*
Y3248660D3*
D42*
X14818360Y4586360D3*
X14753360D3*
X14688360D3*
X14623360D3*
X14558360D3*
X14493360D3*
X14428360D3*
X14363360D3*
X14298360D3*
X14233360D3*
X14168360D3*
X14103360D3*
X14038360D3*
X13973360D3*
X13908360D3*
X13843360D3*
X13778360D3*
X13713360D3*
X13648360D3*
X13583360D3*
X13518360D3*
X13453360D3*
X13388360D3*
X13323360D3*
X13258360D3*
X13193360D3*
X13128360D3*
X13063360D3*
X12998360D3*
X12933360D3*
D43*
X12690860Y4318860D3*
Y4253860D3*
Y4188860D3*
Y4123860D3*
Y4058860D3*
Y3993860D3*
Y3928860D3*
Y3863860D3*
Y3798860D3*
Y3733860D3*
Y3668860D3*
Y3603860D3*
Y3538860D3*
Y3473860D3*
Y3408860D3*
Y3343860D3*
Y3278860D3*
Y3213860D3*
Y3148860D3*
Y3083860D3*
D42*
X12933360Y2816360D3*
X12998360D3*
X13063360D3*
X13128360D3*
X13193360D3*
X13258360D3*
X13323360D3*
X13388360D3*
X13453360D3*
X13518360D3*
X13583360D3*
X13648360D3*
X13713360D3*
X13778360D3*
X13843360D3*
X13908360D3*
X13973360D3*
X14038360D3*
X14103360D3*
X14168360D3*
X14233360D3*
X14298360D3*
X14363360D3*
X14428360D3*
X14493360D3*
X14558360D3*
X14623360D3*
X14688360D3*
X14753360D3*
X14818360D3*
D43*
X15060860Y3083860D3*
Y3148860D3*
Y3213860D3*
Y3278860D3*
Y3343860D3*
Y3408860D3*
Y3473860D3*
Y3538860D3*
Y3603860D3*
Y3668860D3*
Y3733860D3*
Y3798860D3*
Y3863860D3*
Y3928860D3*
Y3993860D3*
Y4058860D3*
Y4123860D3*
Y4188860D3*
Y4253860D3*
Y4318860D3*
D45*
X10467160Y4031260D3*
X10547160D3*
X10627160D3*
X10707160D3*
X10787160D3*
X10867160D3*
X10947160D3*
X11027160D3*
X11107160D3*
X11187160D3*
X11267160D3*
D46*
X11437160Y4201260D3*
Y4281260D3*
Y4361260D3*
Y4441260D3*
Y4521260D3*
Y4601260D3*
Y4681260D3*
Y4761260D3*
Y4841260D3*
Y4921260D3*
Y5001260D3*
D45*
X11267160Y5171260D3*
X11187160D3*
X11107160D3*
X11027160D3*
X10947160D3*
X10867160D3*
X10787160D3*
X10707160D3*
X10627160D3*
X10547160D3*
X10467160D3*
D46*
X10297160Y5001260D3*
Y4921260D3*
Y4841260D3*
Y4761260D3*
Y4681260D3*
Y4601260D3*
Y4521260D3*
Y4441260D3*
Y4361260D3*
Y4281260D3*
Y4201260D3*
D29*
X15008860Y2385060D3*
D30*
X14754860D3*
X14500860D3*
X14246860D3*
Y1623060D3*
X14500860D3*
X14754860D3*
X15008860D3*
D47*
X12748260Y2359660D3*
X13230860D3*
M02*
