M48
METRIC,0000.00
T01C0.33
T02C0.508
T03C0.813
T04C0.9
T05C0.91
T06C0.965
T07C1.1
T08C1.57
T09C3.25
%
T01
X+013536Y+004100
X+013650Y+004201
X+013777Y+004100
X+013421Y+004201
X+013294Y+004100
X+012431Y+004201
X+012380Y+004277
X+012380Y+004366
X+012430Y+004441
X+012278Y+003896
X+012164Y+003680
X+012469Y+003185
X+012494Y+003096
X+012647Y+002741
X+012583Y+002677
X+012520Y+002614
X+012456Y+002550
X+012393Y+002487
X+012329Y+002423
X+012266Y+002360
X+012202Y+002296
X+013320Y+002614
X+013459Y+002588
X+013586Y+002664
X+013650Y+002601
X+014323Y+003274
X+014437Y+003388
X+014552Y+003274
X+014666Y+003388
X+014209Y+003388
X+015212Y+004061
X+015580Y+003998
X+015314Y+002220
X+015364Y+002144
X+015415Y+002068
X+015466Y+001991
X+015517Y+001915
X+015568Y+001839
X+015618Y+001763
X+015682Y+001687
X+015682Y+001521
X+015682Y+001433
X+015682Y+001344
X+015682Y+001255
X+011364Y+003680
X+011262Y+003896
X+011027Y+003833
X+010947Y+003896
X+010867Y+003833
X+010462Y+003896
X+010881Y+004620
X+010881Y+004696
X+010881Y+004773
X+011027Y+005306
X+010547Y+005370
X+010145Y+004811
X+010069Y+004646
X+011567Y+004441
X+011618Y+004366
X+011618Y+004277
X+011567Y+004201
X+008587Y+003422
X+006805Y+002791
X+002322Y+003071
T02
X+013967Y+004442
X+013066Y+004442
X+012837Y+004125
X+013002Y+003782
X+013104Y+003782
X+013205Y+003782
X+012837Y+003465
X+013002Y+002969
X+012532Y+004671
X+011275Y+004506
X+011186Y+005014
X+010462Y+004836
X+010704Y+004188
X+014907Y+003414
X+014907Y+003211
X+015428Y+004417
X+004811Y+003249
X+004811Y+002995
X+004811Y+002741
X+003896Y+001433
X+002309Y+003325
T03
X+012748Y+002360
X+013231Y+002360
T04
X+003058Y+003185
X+003407Y+003249
X+003407Y+002995
X+003407Y+002741
X+003058Y+002550
X+002703Y+002550
X+002334Y+002499
X+002334Y+002245
X+002334Y+001991
X+002334Y+001737
X+002080Y+001864
X+002080Y+002118
X+002080Y+002372
X+002080Y+001610
X+003407Y+001725
X+003407Y+001979
X+003407Y+001471
X+004169Y+001471
X+004169Y+001725
X+004169Y+001979
X+004169Y+002741
X+004169Y+002995
X+004169Y+003249
X+002703Y+003185
X+005031Y+001731
X+005032Y+001478
X+005285Y+001477
X+005285Y+001731
X+005539Y+001731
X+005793Y+001731
X+005793Y+001477
X+005539Y+001477
X+006047Y+001477
X+006047Y+001731
X+006301Y+001731
X+006301Y+001477
X+006555Y+001477
X+006809Y+001477
X+006809Y+001731
X+006555Y+001731
X+007063Y+001731
X+007317Y+001731
X+007317Y+001477
X+007063Y+001477
X+007571Y+001477
X+007571Y+001731
X+007825Y+001731
X+007825Y+001477
X+008079Y+001477
X+008079Y+001731
X+008333Y+001731
X+008587Y+001731
X+008587Y+001477
X+008333Y+001477
X+009497Y+002677
X+009751Y+002677
X+010005Y+002677
X+010259Y+002677
X+010513Y+002677
X+010767Y+002677
X+011021Y+002677
X+011275Y+002677
X+011529Y+002677
X+011783Y+002677
X+014247Y+002385
X+014501Y+002385
X+014755Y+002385
X+015009Y+002385
X+015009Y+001623
X+014755Y+001623
X+014501Y+001623
X+014247Y+001623
X+015199Y+004684
X+015199Y+004938
X+015072Y+005953
X+014818Y+005953
X+014818Y+006207
X+015072Y+006207
X+015326Y+006207
X+015580Y+006207
X+015580Y+005953
X+015326Y+005953
X+014564Y+005953
X+014564Y+006207
X+014310Y+006207
X+014056Y+006207
X+013802Y+006207
X+013802Y+005953
X+013548Y+005953
X+013294Y+005953
X+013040Y+005953
X+012786Y+005953
X+012786Y+006207
X+012532Y+006207
X+012278Y+006207
X+012278Y+005953
X+012532Y+005953
X+012024Y+005953
X+011770Y+005953
X+011516Y+005953
X+011516Y+006207
X+011262Y+006207
X+011262Y+005953
X+011008Y+005953
X+011008Y+006207
X+010754Y+006207
X+010500Y+006207
X+010246Y+006207
X+009992Y+006207
X+009738Y+006207
X+009738Y+005953
X+009484Y+005953
X+009484Y+006207
X+009103Y+005954
X+009992Y+005953
X+010246Y+005953
X+010500Y+005953
X+010754Y+005953
X+011770Y+006207
X+012024Y+006207
X+013040Y+006207
X+013294Y+006207
X+013548Y+006207
X+014056Y+005953
X+014310Y+005953
T05
X+001356Y+003071
X+001356Y+003325
X+001610Y+003325
X+001610Y+003071
T06
X+009561Y+003477
X+009307Y+003477
X+009307Y+003731
X+009561Y+003731
X+009561Y+003985
X+009307Y+003985
X+009307Y+004239
X+009561Y+004239
X+009561Y+004493
X+009307Y+004493
T07
X+013790Y+001636
X+013790Y+001382
X+013536Y+001382
X+013536Y+001636
X+013282Y+001636
X+013282Y+001382
X+013028Y+001382
X+013028Y+001636
X+012774Y+001636
X+012774Y+001382
X+012520Y+001382
X+012520Y+001636
X+012266Y+001636
X+012266Y+001382
X+012012Y+001382
X+012012Y+001636
X+011758Y+001636
X+011504Y+001636
X+011504Y+001382
X+011758Y+001382
X+011250Y+001382
X+011250Y+001636
T08
X+001750Y+001280
X+001750Y+002829
T09
X+001445Y+001483
X+001445Y+002626
T00
M30
